<svg xmlns="http://www.w3.org/2000/svg" width="797" height="259" viewBox="0 0 797 259"><defs><clipPath id="a"><path data-name="2311" transform="translate(107 360)" fill="#fff" stroke="#707070" d="M0 0h797v259H0z"/></clipPath><clipPath id="b"><ellipse data-name="395" cx="283" cy="272" rx="283" ry="272" transform="translate(1071.941 -420.972)" fill="#ffc700"/></clipPath></defs><g data-name="59" transform="translate(-107 -360)" clip-path="url(#a)"><circle data-name="693" cx="166" cy="166" r="166" transform="translate(107 489)" fill="#177584"/><g data-name="221" transform="translate(-733.941 838.972)" clip-path="url(#b)" fill="#b4e8f2"><path data-name="5347" d="M1410.151-415.06a6.233 6.233 0 1 0 6.233-6.233 6.232 6.232 0 0 0-6.233 6.233m0 20.775a6.233 6.233 0 1 0 6.233-6.233 6.23 6.23 0 0 0-6.233 6.233m6.233 305.411a6.235 6.235 0 1 0 6.233 6.237 6.233 6.233 0 0 0-6.233-6.237m-20.778 0a6.235 6.235 0 1 0 6.233 6.237 6.235 6.235 0 0 0-6.233-6.237m-20.775 0a6.235 6.235 0 1 0 6.233 6.237 6.233 6.233 0 0 0-6.233-6.237m-20.778 0a6.235 6.235 0 1 0 6.233 6.237 6.235 6.235 0 0 0-6.233-6.237m-20.775 0a6.235 6.235 0 1 0 6.233 6.237 6.235 6.235 0 0 0-6.233-6.237m-20.775 0a6.235 6.235 0 1 0 6.233 6.237 6.233 6.233 0 0 0-6.233-6.237m-20.778 0a6.235 6.235 0 1 0 6.233 6.237 6.235 6.235 0 0 0-6.233-6.237m-20.775 0a6.235 6.235 0 1 0 6.233 6.237 6.233 6.233 0 0 0-6.233-6.237m-20.779 0a6.235 6.235 0 1 0 6.233 6.237 6.236 6.236 0 0 0-6.233-6.237m-20.775 0a6.235 6.235 0 1 0 6.233 6.237 6.235 6.235 0 0 0-6.233-6.237m-20.778 0a6.235 6.235 0 1 0 6.237 6.237 6.235 6.235 0 0 0-6.237-6.237m-20.775 0a6.235 6.235 0 1 0 6.233 6.237 6.235 6.235 0 0 0-6.233-6.237m-20.775 0a6.235 6.235 0 1 0 6.233 6.237 6.233 6.233 0 0 0-6.233-6.237m-20.778 0a6.235 6.235 0 1 0 6.233 6.237 6.236 6.236 0 0 0-6.233-6.237m-20.775 0a6.235 6.235 0 1 0 6.233 6.237 6.233 6.233 0 0 0-6.233-6.237m-20.778 0a6.235 6.235 0 1 0 6.233 6.237 6.236 6.236 0 0 0-6.233-6.237m-20.775 0a6.235 6.235 0 1 0 6.233 6.237 6.235 6.235 0 0 0-6.233-6.237m332.423-20.775a6.233 6.233 0 1 0 6.233 6.233 6.232 6.232 0 0 0-6.233-6.233m-20.778 0a6.233 6.233 0 1 0 6.233 6.233 6.235 6.235 0 0 0-6.233-6.233m-20.775 0a6.233 6.233 0 1 0 6.233 6.233 6.232 6.232 0 0 0-6.233-6.233m-20.778 0a6.233 6.233 0 1 0 6.233 6.233 6.234 6.234 0 0 0-6.233-6.233m-20.775 0a6.233 6.233 0 1 0 6.233 6.233 6.234 6.234 0 0 0-6.233-6.233m-20.775 0a6.233 6.233 0 1 0 6.233 6.233 6.232 6.232 0 0 0-6.233-6.233m-20.778 0a6.233 6.233 0 1 0 6.233 6.233 6.235 6.235 0 0 0-6.233-6.233m-20.775 0a6.233 6.233 0 1 0 6.233 6.233 6.232 6.232 0 0 0-6.233-6.233m-20.779 0a6.233 6.233 0 1 0 6.233 6.233 6.235 6.235 0 0 0-6.233-6.233m-20.775 0a6.233 6.233 0 1 0 6.233 6.233 6.235 6.235 0 0 0-6.233-6.233m-20.778 0a6.233 6.233 0 1 0 6.237 6.233 6.235 6.235 0 0 0-6.237-6.233m-20.775 0a6.233 6.233 0 1 0 6.233 6.233 6.235 6.235 0 0 0-6.233-6.233m-20.775 0a6.233 6.233 0 1 0 6.233 6.233 6.232 6.232 0 0 0-6.233-6.233m-20.778 0a6.233 6.233 0 1 0 6.233 6.233 6.235 6.235 0 0 0-6.233-6.233m-20.775 0a6.233 6.233 0 1 0 6.233 6.233 6.232 6.232 0 0 0-6.233-6.233m-20.778 0a6.233 6.233 0 1 0 6.233 6.233 6.235 6.235 0 0 0-6.233-6.233m-20.775 0a6.233 6.233 0 1 0 6.233 6.233 6.234 6.234 0 0 0-6.233-6.233m332.42-20.777a6.233 6.233 0 1 0 6.233 6.233 6.23 6.23 0 0 0-6.233-6.233m-20.778 0a6.233 6.233 0 1 0 6.233 6.233 6.232 6.232 0 0 0-6.233-6.233m-20.775 0a6.233 6.233 0 1 0 6.233 6.233 6.23 6.23 0 0 0-6.233-6.233m-20.778 0a6.233 6.233 0 1 0 6.233 6.233 6.232 6.232 0 0 0-6.233-6.233m-20.775 0a6.233 6.233 0 1 0 6.233 6.233 6.232 6.232 0 0 0-6.233-6.233m-20.775 0a6.233 6.233 0 1 0 6.233 6.233 6.23 6.23 0 0 0-6.233-6.233m-20.778 0a6.233 6.233 0 1 0 6.233 6.233 6.232 6.232 0 0 0-6.232-6.233m-20.775 0a6.233 6.233 0 1 0 6.233 6.233 6.23 6.23 0 0 0-6.233-6.233m-20.779 0a6.233 6.233 0 1 0 6.233 6.233 6.232 6.232 0 0 0-6.233-6.233m-20.775 0a6.233 6.233 0 1 0 6.233 6.233 6.232 6.232 0 0 0-6.233-6.233m-20.778 0a6.233 6.233 0 1 0 6.237 6.233 6.232 6.232 0 0 0-6.237-6.233m-20.775 0a6.233 6.233 0 1 0 6.233 6.233 6.232 6.232 0 0 0-6.233-6.233m-20.775 0a6.233 6.233 0 1 0 6.233 6.233 6.23 6.23 0 0 0-6.233-6.233m-20.778 0a6.233 6.233 0 1 0 6.233 6.233 6.232 6.232 0 0 0-6.233-6.233m-20.775 0a6.233 6.233 0 1 0 6.233 6.233 6.23 6.23 0 0 0-6.233-6.233m-20.778 0a6.233 6.233 0 1 0 6.233 6.233 6.232 6.232 0 0 0-6.233-6.233m-20.775 0a6.233 6.233 0 1 0 6.233 6.233 6.232 6.232 0 0 0-6.233-6.233m332.423-20.778a6.233 6.233 0 1 0 6.233 6.233 6.232 6.232 0 0 0-6.233-6.233m-20.778 0a6.233 6.233 0 1 0 6.233 6.233 6.234 6.234 0 0 0-6.233-6.233m-20.775 0a6.233 6.233 0 1 0 6.233 6.233 6.232 6.232 0 0 0-6.233-6.233m-20.778 0a6.233 6.233 0 1 0 6.233 6.233 6.234 6.234 0 0 0-6.233-6.233m-20.775 0a6.233 6.233 0 1 0 6.233 6.233 6.234 6.234 0 0 0-6.233-6.233m-20.775 0a6.233 6.233 0 1 0 6.233 6.233 6.232 6.232 0 0 0-6.233-6.233m-20.778 0a6.233 6.233 0 1 0 6.233 6.233 6.234 6.234 0 0 0-6.233-6.233m-20.775 0a6.233 6.233 0 1 0 6.233 6.233 6.232 6.232 0 0 0-6.233-6.233m-20.779 0a6.233 6.233 0 1 0 6.233 6.233 6.235 6.235 0 0 0-6.233-6.233m-20.775 0a6.233 6.233 0 1 0 6.233 6.233 6.235 6.235 0 0 0-6.233-6.233m-20.778 0a6.233 6.233 0 1 0 6.237 6.233 6.234 6.234 0 0 0-6.237-6.233m-20.775 0a6.233 6.233 0 1 0 6.233 6.233 6.235 6.235 0 0 0-6.233-6.233m-20.775 0a6.233 6.233 0 1 0 6.233 6.233 6.232 6.232 0 0 0-6.233-6.233m-20.778 0a6.233 6.233 0 1 0 6.233 6.233 6.235 6.235 0 0 0-6.233-6.233m-20.775 0a6.233 6.233 0 1 0 6.233 6.233 6.232 6.232 0 0 0-6.233-6.233m-20.778 0a6.233 6.233 0 1 0 6.233 6.233 6.235 6.235 0 0 0-6.233-6.233m-20.775 0a6.233 6.233 0 1 0 6.233 6.233 6.234 6.234 0 0 0-6.233-6.233m332.423-20.775a6.233 6.233 0 1 0 6.233 6.233 6.232 6.232 0 0 0-6.233-6.233m-20.778 0a6.233 6.233 0 1 0 6.233 6.233 6.235 6.235 0 0 0-6.233-6.233m-20.775 0a6.233 6.233 0 1 0 6.233 6.233 6.232 6.232 0 0 0-6.233-6.233m-20.778 0a6.233 6.233 0 1 0 6.233 6.233 6.234 6.234 0 0 0-6.233-6.233m-20.775 0a6.233 6.233 0 1 0 6.233 6.233 6.234 6.234 0 0 0-6.233-6.233m-20.775 0a6.233 6.233 0 1 0 6.233 6.233 6.232 6.232 0 0 0-6.233-6.233m-20.778 0a6.233 6.233 0 1 0 6.233 6.233 6.235 6.235 0 0 0-6.233-6.233m-20.775 0a6.233 6.233 0 1 0 6.233 6.233 6.232 6.232 0 0 0-6.233-6.233m-20.779 0a6.233 6.233 0 1 0 6.233 6.233 6.235 6.235 0 0 0-6.233-6.233m-20.775 0a6.233 6.233 0 1 0 6.233 6.233 6.235 6.235 0 0 0-6.233-6.233m-20.778 0a6.233 6.233 0 1 0 6.237 6.233 6.234 6.234 0 0 0-6.237-6.233m-20.775 0a6.233 6.233 0 1 0 6.233 6.233 6.235 6.235 0 0 0-6.233-6.233m-20.775 0a6.233 6.233 0 1 0 6.233 6.233 6.232 6.232 0 0 0-6.233-6.233m-20.778 0a6.233 6.233 0 1 0 6.233 6.233 6.235 6.235 0 0 0-6.233-6.233m-20.775 0a6.233 6.233 0 1 0 6.233 6.233 6.232 6.232 0 0 0-6.233-6.233m-20.778 0a6.233 6.233 0 1 0 6.233 6.233 6.235 6.235 0 0 0-6.233-6.233m-20.775 0a6.233 6.233 0 1 0 6.233 6.233 6.234 6.234 0 0 0-6.233-6.233m332.423-20.778a6.235 6.235 0 1 0 6.233 6.236 6.233 6.233 0 0 0-6.233-6.236m-20.778 0a6.235 6.235 0 1 0 6.233 6.236 6.235 6.235 0 0 0-6.233-6.236m-20.775 0a6.235 6.235 0 1 0 6.233 6.236 6.233 6.233 0 0 0-6.233-6.236m-20.778 0a6.235 6.235 0 1 0 6.233 6.236 6.235 6.235 0 0 0-6.233-6.236m-20.775 0a6.235 6.235 0 1 0 6.233 6.236 6.235 6.235 0 0 0-6.233-6.236m-20.775 0a6.235 6.235 0 1 0 6.233 6.236 6.233 6.233 0 0 0-6.233-6.236m-20.778 0a6.235 6.235 0 1 0 6.233 6.236 6.235 6.235 0 0 0-6.233-6.236m-20.775 0a6.235 6.235 0 1 0 6.233 6.236 6.233 6.233 0 0 0-6.233-6.236m-20.779 0a6.235 6.235 0 1 0 6.233 6.236 6.235 6.235 0 0 0-6.233-6.236m-20.775 0a6.235 6.235 0 1 0 6.233 6.236 6.235 6.235 0 0 0-6.233-6.236m-20.778 0a6.235 6.235 0 1 0 6.237 6.236 6.235 6.235 0 0 0-6.237-6.236m-20.775 0a6.235 6.235 0 1 0 6.233 6.236 6.235 6.235 0 0 0-6.233-6.236m-20.775 0a6.235 6.235 0 1 0 6.233 6.236 6.233 6.233 0 0 0-6.233-6.236m-20.778 0a6.235 6.235 0 1 0 6.233 6.236 6.235 6.235 0 0 0-6.233-6.236m-20.775 0a6.235 6.235 0 1 0 6.233 6.236 6.233 6.233 0 0 0-6.233-6.236m-20.778 0a6.235 6.235 0 1 0 6.233 6.236 6.235 6.235 0 0 0-6.233-6.236m-20.775 0a6.235 6.235 0 1 0 6.233 6.236 6.235 6.235 0 0 0-6.233-6.236m332.418-20.769a6.233 6.233 0 1 0 6.233 6.233 6.232 6.232 0 0 0-6.233-6.233m-20.778 0a6.233 6.233 0 1 0 6.233 6.233 6.235 6.235 0 0 0-6.233-6.233m-20.775 0a6.233 6.233 0 1 0 6.233 6.233 6.232 6.232 0 0 0-6.233-6.233m-20.778 0a6.233 6.233 0 1 0 6.233 6.233 6.234 6.234 0 0 0-6.233-6.233m-20.775 0a6.233 6.233 0 1 0 6.233 6.233 6.234 6.234 0 0 0-6.233-6.233m-20.775 0a6.233 6.233 0 1 0 6.233 6.233 6.232 6.232 0 0 0-6.233-6.233m-20.777 0a6.233 6.233 0 1 0 6.233 6.233 6.235 6.235 0 0 0-6.233-6.233m-20.775 0a6.233 6.233 0 1 0 6.233 6.233 6.232 6.232 0 0 0-6.234-6.233m-20.779 0a6.233 6.233 0 1 0 6.233 6.233 6.235 6.235 0 0 0-6.233-6.233m-20.775 0a6.233 6.233 0 1 0 6.233 6.233 6.235 6.235 0 0 0-6.233-6.233m-20.778 0a6.233 6.233 0 1 0 6.237 6.233 6.235 6.235 0 0 0-6.237-6.233m-20.775 0a6.233 6.233 0 1 0 6.233 6.233 6.235 6.235 0 0 0-6.233-6.233m-20.775 0a6.233 6.233 0 1 0 6.233 6.233 6.232 6.232 0 0 0-6.233-6.233m-20.778 0a6.233 6.233 0 1 0 6.233 6.233 6.235 6.235 0 0 0-6.233-6.233m-20.775 0a6.233 6.233 0 1 0 6.233 6.233 6.232 6.232 0 0 0-6.233-6.233m-20.778 0a6.233 6.233 0 1 0 6.233 6.233 6.235 6.235 0 0 0-6.233-6.233m-20.775 0a6.233 6.233 0 1 0 6.233 6.233 6.234 6.234 0 0 0-6.233-6.233m332.423-20.775a6.233 6.233 0 1 0 6.233 6.233 6.23 6.23 0 0 0-6.233-6.233m-20.778 0a6.233 6.233 0 1 0 6.233 6.233 6.232 6.232 0 0 0-6.233-6.233m-20.775 0a6.233 6.233 0 1 0 6.233 6.233 6.23 6.23 0 0 0-6.233-6.233m-20.778 0a6.233 6.233 0 1 0 6.233 6.233 6.232 6.232 0 0 0-6.233-6.233m-20.775 0a6.233 6.233 0 1 0 6.233 6.233 6.232 6.232 0 0 0-6.233-6.233m-20.775 0a6.233 6.233 0 1 0 6.233 6.233 6.23 6.23 0 0 0-6.233-6.233m-20.778 0a6.233 6.233 0 1 0 6.233 6.233 6.232 6.232 0 0 0-6.233-6.233m-20.775 0a6.233 6.233 0 1 0 6.233 6.233 6.23 6.23 0 0 0-6.233-6.233m-20.779 0a6.233 6.233 0 1 0 6.233 6.233 6.232 6.232 0 0 0-6.233-6.233m-20.775 0a6.233 6.233 0 1 0 6.233 6.233 6.232 6.232 0 0 0-6.233-6.233m-20.778 0a6.233 6.233 0 1 0 6.237 6.233 6.232 6.232 0 0 0-6.237-6.233m-20.775 0a6.233 6.233 0 1 0 6.233 6.233 6.232 6.232 0 0 0-6.233-6.233m-20.775 0a6.233 6.233 0 1 0 6.233 6.233 6.23 6.23 0 0 0-6.233-6.233m-20.778 0a6.233 6.233 0 1 0 6.233 6.233 6.232 6.232 0 0 0-6.233-6.233m-20.775 0a6.233 6.233 0 1 0 6.233 6.233 6.23 6.23 0 0 0-6.233-6.233m-20.778 0a6.233 6.233 0 1 0 6.233 6.233 6.232 6.232 0 0 0-6.233-6.233m-20.775 0a6.233 6.233 0 1 0 6.233 6.233 6.232 6.232 0 0 0-6.233-6.233m332.423-20.778a6.233 6.233 0 1 0 6.233 6.233 6.232 6.232 0 0 0-6.233-6.233m-20.778 0a6.233 6.233 0 1 0 6.233 6.233 6.235 6.235 0 0 0-6.233-6.233m-20.775 0a6.233 6.233 0 1 0 6.233 6.233 6.232 6.232 0 0 0-6.233-6.233m-20.778 0a6.233 6.233 0 1 0 6.233 6.233 6.234 6.234 0 0 0-6.233-6.233m-20.775 0a6.233 6.233 0 1 0 6.233 6.233 6.234 6.234 0 0 0-6.233-6.233m-20.775 0a6.233 6.233 0 1 0 6.233 6.233 6.232 6.232 0 0 0-6.233-6.233m-20.778 0a6.233 6.233 0 1 0 6.233 6.233 6.235 6.235 0 0 0-6.233-6.233m-20.775 0a6.233 6.233 0 1 0 6.233 6.233 6.232 6.232 0 0 0-6.233-6.233m-20.779 0a6.233 6.233 0 1 0 6.233 6.233 6.235 6.235 0 0 0-6.233-6.233m-20.775 0a6.233 6.233 0 1 0 6.233 6.233 6.235 6.235 0 0 0-6.233-6.233m-20.778 0a6.233 6.233 0 1 0 6.237 6.233 6.235 6.235 0 0 0-6.237-6.233m-20.775 0a6.233 6.233 0 1 0 6.233 6.233 6.235 6.235 0 0 0-6.233-6.233m-20.775 0a6.233 6.233 0 1 0 6.233 6.233 6.232 6.232 0 0 0-6.233-6.233m-20.778 0a6.233 6.233 0 1 0 6.233 6.233 6.235 6.235 0 0 0-6.233-6.233m-20.775 0a6.233 6.233 0 1 0 6.233 6.233 6.232 6.232 0 0 0-6.233-6.233m-20.778 0a6.233 6.233 0 1 0 6.233 6.233 6.235 6.235 0 0 0-6.233-6.233m-20.775 0a6.233 6.233 0 1 0 6.233 6.233 6.234 6.234 0 0 0-6.233-6.233m332.423-20.775a6.233 6.233 0 1 0 6.233 6.233 6.23 6.23 0 0 0-6.233-6.233m-20.778 0a6.233 6.233 0 1 0 6.233 6.233 6.232 6.232 0 0 0-6.233-6.233m-20.775 0a6.233 6.233 0 1 0 6.233 6.233 6.23 6.23 0 0 0-6.233-6.233m-20.778 0a6.233 6.233 0 1 0 6.233 6.233 6.232 6.232 0 0 0-6.233-6.233m-20.775 0a6.233 6.233 0 1 0 6.233 6.233 6.232 6.232 0 0 0-6.233-6.233m-20.775 0a6.233 6.233 0 1 0 6.233 6.233 6.23 6.23 0 0 0-6.233-6.233m-20.778 0a6.233 6.233 0 1 0 6.233 6.233 6.232 6.232 0 0 0-6.233-6.233m-20.775 0a6.233 6.233 0 1 0 6.233 6.233 6.23 6.23 0 0 0-6.233-6.233m-20.779 0a6.233 6.233 0 1 0 6.233 6.233 6.232 6.232 0 0 0-6.233-6.233m-20.775 0a6.233 6.233 0 1 0 6.227 6.228 6.232 6.232 0 0 0-6.233-6.233m-20.778 0a6.233 6.233 0 1 0 6.237 6.233 6.232 6.232 0 0 0-6.237-6.233m-20.775 0a6.233 6.233 0 1 0 6.233 6.233 6.232 6.232 0 0 0-6.233-6.233m-20.775 0a6.233 6.233 0 1 0 6.233 6.233 6.23 6.23 0 0 0-6.233-6.233m-20.778 0a6.233 6.233 0 1 0 6.239 6.233 6.232 6.232 0 0 0-6.233-6.233m-20.775 0a6.233 6.233 0 1 0 6.233 6.233 6.23 6.23 0 0 0-6.233-6.233m-20.778 0a6.233 6.233 0 1 0 6.233 6.233 6.232 6.232 0 0 0-6.233-6.233m-20.775 0a6.233 6.233 0 1 0 6.233 6.233 6.232 6.232 0 0 0-6.233-6.233m332.423-20.778a6.233 6.233 0 1 0 6.233 6.233 6.232 6.232 0 0 0-6.233-6.233m-20.778 0a6.233 6.233 0 1 0 6.233 6.233 6.234 6.234 0 0 0-6.233-6.233m-20.775 0a6.233 6.233 0 1 0 6.233 6.233 6.232 6.232 0 0 0-6.233-6.233m-20.778 0a6.233 6.233 0 1 0 6.233 6.233 6.234 6.234 0 0 0-6.233-6.233m-20.775 0a6.233 6.233 0 1 0 6.233 6.233 6.234 6.234 0 0 0-6.233-6.233m-20.775 0a6.233 6.233 0 1 0 6.233 6.233 6.232 6.232 0 0 0-6.233-6.233m-20.778 0a6.233 6.233 0 1 0 6.233 6.233 6.234 6.234 0 0 0-6.233-6.233m-20.775 0a6.233 6.233 0 1 0 6.233 6.233 6.232 6.232 0 0 0-6.233-6.233m-20.779 0a6.233 6.233 0 1 0 6.233 6.233 6.235 6.235 0 0 0-6.233-6.233m-20.775 0a6.233 6.233 0 1 0 6.233 6.233 6.234 6.234 0 0 0-6.233-6.233m-20.778 0a6.233 6.233 0 1 0 6.237 6.233 6.234 6.234 0 0 0-6.237-6.233m-20.775 0a6.233 6.233 0 1 0 6.233 6.233 6.234 6.234 0 0 0-6.233-6.233m-20.775 0a6.233 6.233 0 1 0 6.233 6.233 6.232 6.232 0 0 0-6.233-6.233m-20.778 0a6.233 6.233 0 1 0 6.233 6.233 6.235 6.235 0 0 0-6.233-6.233m-20.775 0a6.233 6.233 0 1 0 6.233 6.233 6.232 6.232 0 0 0-6.233-6.233m-20.778 0a6.233 6.233 0 1 0 6.233 6.233 6.235 6.235 0 0 0-6.233-6.233m-20.775 0a6.233 6.233 0 1 0 6.233 6.233 6.234 6.234 0 0 0-6.233-6.233m332.423-20.775a6.233 6.233 0 1 0 6.233 6.233 6.232 6.232 0 0 0-6.233-6.233m-20.778 0a6.233 6.233 0 1 0 6.233 6.233 6.235 6.235 0 0 0-6.233-6.233m-20.775 0a6.233 6.233 0 1 0 6.233 6.233 6.232 6.232 0 0 0-6.233-6.233m-20.778 0a6.233 6.233 0 1 0 6.233 6.233 6.234 6.234 0 0 0-6.233-6.233m-20.775 0a6.233 6.233 0 1 0 6.233 6.233 6.234 6.234 0 0 0-6.233-6.233m-20.775 0a6.233 6.233 0 1 0 6.233 6.233 6.232 6.232 0 0 0-6.233-6.233m-20.778 0a6.233 6.233 0 1 0 6.233 6.233 6.235 6.235 0 0 0-6.233-6.233m-20.775 0a6.233 6.233 0 1 0 6.233 6.233 6.232 6.232 0 0 0-6.233-6.233m-20.779 0a6.233 6.233 0 1 0 6.233 6.233 6.235 6.235 0 0 0-6.233-6.233m-20.775 0a6.233 6.233 0 1 0 6.233 6.233 6.235 6.235 0 0 0-6.233-6.233m-20.778 0a6.233 6.233 0 1 0 6.237 6.233 6.235 6.235 0 0 0-6.237-6.233m-20.775 0a6.233 6.233 0 1 0 6.233 6.233 6.235 6.235 0 0 0-6.233-6.233m-20.775 0a6.233 6.233 0 1 0 6.233 6.233 6.232 6.232 0 0 0-6.233-6.233m-20.778 0a6.233 6.233 0 1 0 6.233 6.233 6.235 6.235 0 0 0-6.233-6.233m-20.775 0a6.233 6.233 0 1 0 6.233 6.233 6.232 6.232 0 0 0-6.233-6.233m-20.778 0a6.233 6.233 0 1 0 6.233 6.233 6.235 6.235 0 0 0-6.233-6.233m-20.775 0a6.233 6.233 0 1 0 6.233 6.233 6.234 6.234 0 0 0-6.233-6.233m332.423-20.775a6.233 6.233 0 1 0 6.233 6.233 6.23 6.23 0 0 0-6.233-6.233m-20.778 0a6.233 6.233 0 1 0 6.233 6.233 6.232 6.232 0 0 0-6.233-6.233m-20.775 0a6.233 6.233 0 1 0 6.233 6.233 6.23 6.23 0 0 0-6.233-6.233m-20.778 0a6.233 6.233 0 1 0 6.233 6.233 6.232 6.232 0 0 0-6.233-6.233m-20.775 0a6.233 6.233 0 1 0 6.233 6.233 6.232 6.232 0 0 0-6.233-6.233m-20.775 0a6.233 6.233 0 1 0 6.233 6.233 6.23 6.23 0 0 0-6.233-6.233m-20.778 0a6.233 6.233 0 1 0 6.233 6.233 6.232 6.232 0 0 0-6.233-6.233m-20.775 0a6.233 6.233 0 1 0 6.233 6.233 6.23 6.23 0 0 0-6.233-6.233m-20.779 0a6.233 6.233 0 1 0 6.233 6.233 6.232 6.232 0 0 0-6.233-6.233m-20.775 0a6.233 6.233 0 1 0 6.233 6.233 6.232 6.232 0 0 0-6.233-6.233m-20.778 0a6.233 6.233 0 1 0 6.237 6.233 6.232 6.232 0 0 0-6.237-6.233m-20.775 0a6.233 6.233 0 1 0 6.233 6.233 6.232 6.232 0 0 0-6.233-6.233m-20.775 0a6.233 6.233 0 1 0 6.233 6.233 6.23 6.23 0 0 0-6.233-6.233m-20.778 0a6.233 6.233 0 1 0 6.233 6.233 6.232 6.232 0 0 0-6.233-6.233m-20.775 0a6.233 6.233 0 1 0 6.233 6.233 6.23 6.23 0 0 0-6.233-6.233m-20.778 0a6.233 6.233 0 1 0 6.233 6.233 6.232 6.232 0 0 0-6.233-6.233m-20.775 0a6.233 6.233 0 1 0 6.233 6.233 6.232 6.232 0 0 0-6.233-6.233m332.423-20.779a6.233 6.233 0 1 0 6.233 6.233 6.232 6.232 0 0 0-6.233-6.233m-20.778 0a6.233 6.233 0 1 0 6.233 6.233 6.235 6.235 0 0 0-6.233-6.233m-20.775 0a6.233 6.233 0 1 0 6.233 6.233 6.232 6.232 0 0 0-6.233-6.233m-20.778 0a6.233 6.233 0 1 0 6.233 6.233 6.234 6.234 0 0 0-6.233-6.233m-20.775 0a6.233 6.233 0 1 0 6.233 6.233 6.234 6.234 0 0 0-6.233-6.233m-20.775 0a6.233 6.233 0 1 0 6.233 6.233 6.232 6.232 0 0 0-6.233-6.233m-20.778 0a6.233 6.233 0 1 0 6.233 6.233 6.234 6.234 0 0 0-6.233-6.233m-20.775 0a6.233 6.233 0 1 0 6.233 6.233 6.232 6.232 0 0 0-6.233-6.233m-20.779 0a6.233 6.233 0 1 0 6.233 6.233 6.235 6.235 0 0 0-6.233-6.233m-20.775 0a6.233 6.233 0 1 0 6.233 6.233 6.235 6.235 0 0 0-6.233-6.233m-20.778 0a6.233 6.233 0 1 0 6.237 6.233 6.234 6.234 0 0 0-6.237-6.233m-20.775 0a6.233 6.233 0 1 0 6.233 6.233 6.235 6.235 0 0 0-6.233-6.233m-20.775 0a6.233 6.233 0 1 0 6.233 6.233 6.232 6.232 0 0 0-6.233-6.233m-20.778 0a6.233 6.233 0 1 0 6.233 6.233 6.235 6.235 0 0 0-6.233-6.233m-20.775 0a6.233 6.233 0 1 0 6.233 6.233 6.232 6.232 0 0 0-6.233-6.233m-20.778 0a6.233 6.233 0 1 0 6.233 6.233 6.235 6.235 0 0 0-6.233-6.233m-20.775 0a6.233 6.233 0 1 0 6.233 6.233 6.234 6.234 0 0 0-6.233-6.233m332.423-20.775a6.233 6.233 0 1 0 6.233 6.233 6.23 6.23 0 0 0-6.233-6.233m-20.778 0a6.233 6.233 0 1 0 6.233 6.233 6.232 6.232 0 0 0-6.233-6.233m-20.775 0a6.233 6.233 0 1 0 6.233 6.233 6.23 6.23 0 0 0-6.233-6.233m-20.778 0a6.233 6.233 0 1 0 6.233 6.233 6.232 6.232 0 0 0-6.233-6.233m-20.775 0a6.233 6.233 0 1 0 6.233 6.233 6.232 6.232 0 0 0-6.233-6.233m-20.775 0a6.233 6.233 0 1 0 6.233 6.233 6.23 6.23 0 0 0-6.233-6.233m-20.778 0a6.233 6.233 0 1 0 6.233 6.233 6.232 6.232 0 0 0-6.233-6.233m-20.775 0a6.233 6.233 0 1 0 6.233 6.233 6.23 6.23 0 0 0-6.233-6.233m-20.779 0a6.233 6.233 0 1 0 6.233 6.233 6.232 6.232 0 0 0-6.233-6.233m-20.775 0a6.233 6.233 0 1 0 6.233 6.233 6.232 6.232 0 0 0-6.233-6.233m-20.778 0a6.233 6.233 0 1 0 6.237 6.233 6.232 6.232 0 0 0-6.237-6.233m-20.775 0a6.233 6.233 0 1 0 6.233 6.233 6.232 6.232 0 0 0-6.233-6.233m-20.775 0a6.233 6.233 0 1 0 6.233 6.233 6.23 6.23 0 0 0-6.233-6.233m-20.778 0a6.233 6.233 0 1 0 6.233 6.233 6.232 6.232 0 0 0-6.233-6.233m-20.775 0a6.233 6.233 0 1 0 6.233 6.233 6.23 6.23 0 0 0-6.233-6.233m-20.778 0a6.233 6.233 0 1 0 6.233 6.233 6.232 6.232 0 0 0-6.233-6.233m-20.775 0a6.233 6.233 0 1 0 6.233 6.233 6.232 6.232 0 0 0-6.233-6.233m332.423-20.779a6.233 6.233 0 1 0 6.233 6.233 6.232 6.232 0 0 0-6.233-6.233m-20.778 0a6.233 6.233 0 1 0 6.233 6.233 6.234 6.234 0 0 0-6.233-6.233m-20.775 0a6.233 6.233 0 1 0 6.233 6.233 6.232 6.232 0 0 0-6.233-6.233m-20.778 0a6.233 6.233 0 1 0 6.233 6.233 6.234 6.234 0 0 0-6.233-6.233m-20.775 0a6.233 6.233 0 1 0 6.233 6.233 6.234 6.234 0 0 0-6.233-6.233m-20.775 0a6.233 6.233 0 1 0 6.233 6.233 6.232 6.232 0 0 0-6.233-6.233m-20.778 0a6.233 6.233 0 1 0 6.233 6.233 6.234 6.234 0 0 0-6.233-6.233m-20.775 0a6.233 6.233 0 1 0 6.233 6.233 6.232 6.232 0 0 0-6.233-6.233m-20.779 0a6.233 6.233 0 1 0 6.233 6.233 6.235 6.235 0 0 0-6.233-6.233m-20.775 0a6.233 6.233 0 1 0 6.233 6.233 6.234 6.234 0 0 0-6.233-6.233m-20.778 0a6.233 6.233 0 1 0 6.237 6.233 6.234 6.234 0 0 0-6.237-6.233m-20.775 0a6.233 6.233 0 1 0 6.233 6.233 6.234 6.234 0 0 0-6.233-6.233m-20.775 0a6.233 6.233 0 1 0 6.233 6.233 6.232 6.232 0 0 0-6.233-6.233m-20.778 0a6.233 6.233 0 1 0 6.233 6.233 6.235 6.235 0 0 0-6.233-6.233m-20.775 0a6.233 6.233 0 1 0 6.233 6.233 6.232 6.232 0 0 0-6.233-6.233m-20.778 0a6.233 6.233 0 1 0 6.233 6.233 6.235 6.235 0 0 0-6.233-6.233m-20.775 0a6.233 6.233 0 1 0 6.233 6.233 6.234 6.234 0 0 0-6.233-6.233m332.423-20.775a6.233 6.233 0 1 0 6.233 6.233 6.232 6.232 0 0 0-6.233-6.233m-20.778 0a6.233 6.233 0 1 0 6.233 6.233 6.235 6.235 0 0 0-6.233-6.233m-20.775 0a6.233 6.233 0 1 0 6.233 6.233 6.232 6.232 0 0 0-6.233-6.233m-20.778 0a6.233 6.233 0 1 0 6.233 6.233 6.234 6.234 0 0 0-6.233-6.233m-20.775 0a6.233 6.233 0 1 0 6.233 6.233 6.234 6.234 0 0 0-6.233-6.233m-20.775 0a6.233 6.233 0 1 0 6.233 6.233 6.232 6.232 0 0 0-6.233-6.233m-20.778 0a6.233 6.233 0 1 0 6.233 6.233 6.235 6.235 0 0 0-6.233-6.233m-20.775 0a6.233 6.233 0 1 0 6.233 6.233 6.232 6.232 0 0 0-6.233-6.233m-20.779 0a6.233 6.233 0 1 0 6.233 6.233 6.235 6.235 0 0 0-6.233-6.233m-20.775 0a6.233 6.233 0 1 0 6.233 6.233 6.235 6.235 0 0 0-6.233-6.233m-20.778 0a6.233 6.233 0 1 0 6.237 6.233 6.234 6.234 0 0 0-6.237-6.233m-20.775 0a6.233 6.233 0 1 0 6.233 6.233 6.235 6.235 0 0 0-6.233-6.233m-20.775 0a6.233 6.233 0 1 0 6.233 6.233 6.232 6.232 0 0 0-6.233-6.233m-20.778 0a6.233 6.233 0 1 0 6.233 6.233 6.235 6.235 0 0 0-6.233-6.233m-20.775 0a6.233 6.233 0 1 0 6.233 6.233 6.232 6.232 0 0 0-6.233-6.233m-20.778 0a6.233 6.233 0 1 0 6.233 6.233 6.235 6.235 0 0 0-6.233-6.233m-14.542 6.233a6.233 6.233 0 1 1-6.233-6.233 6.235 6.235 0 0 1 6.233 6.233"/><path data-name="5780" d="M1761.721-415.06a6.233 6.233 0 1 0 6.233-6.233 6.232 6.232 0 0 0-6.233 6.233m0 20.775a6.233 6.233 0 1 0 6.233-6.233 6.23 6.23 0 0 0-6.233 6.233m6.233 305.411a6.235 6.235 0 1 0 6.233 6.237 6.233 6.233 0 0 0-6.233-6.237m-20.778 0a6.235 6.235 0 1 0 6.233 6.237 6.235 6.235 0 0 0-6.233-6.237m-20.775 0a6.235 6.235 0 1 0 6.233 6.237 6.233 6.233 0 0 0-6.233-6.237m-20.778 0a6.235 6.235 0 1 0 6.233 6.237 6.235 6.235 0 0 0-6.233-6.237m-20.775 0a6.235 6.235 0 1 0 6.233 6.237 6.235 6.235 0 0 0-6.233-6.237m-20.775 0a6.235 6.235 0 1 0 6.233 6.237 6.233 6.233 0 0 0-6.233-6.237m-20.778 0a6.235 6.235 0 1 0 6.233 6.237 6.235 6.235 0 0 0-6.233-6.237m-20.775 0a6.235 6.235 0 1 0 6.233 6.237 6.233 6.233 0 0 0-6.233-6.237m-20.779 0a6.235 6.235 0 1 0 6.233 6.237 6.236 6.236 0 0 0-6.233-6.237m-20.775 0a6.235 6.235 0 1 0 6.233 6.237 6.235 6.235 0 0 0-6.233-6.237m-20.778 0a6.235 6.235 0 1 0 6.237 6.237 6.235 6.235 0 0 0-6.237-6.237m-20.775 0a6.235 6.235 0 1 0 6.233 6.237 6.235 6.235 0 0 0-6.233-6.237m-20.775 0a6.235 6.235 0 1 0 6.233 6.237 6.233 6.233 0 0 0-6.233-6.237m-20.778 0a6.235 6.235 0 1 0 6.233 6.237 6.236 6.236 0 0 0-6.233-6.237m-20.775 0a6.235 6.235 0 1 0 6.233 6.237 6.233 6.233 0 0 0-6.233-6.237m-20.778 0a6.235 6.235 0 1 0 6.233 6.237 6.236 6.236 0 0 0-6.233-6.237m-20.775 0a6.235 6.235 0 1 0 6.233 6.237 6.235 6.235 0 0 0-6.233-6.237m332.423-20.775a6.233 6.233 0 1 0 6.233 6.233 6.232 6.232 0 0 0-6.233-6.233m-20.778 0a6.233 6.233 0 1 0 6.233 6.233 6.235 6.235 0 0 0-6.233-6.233m-20.775 0a6.233 6.233 0 1 0 6.233 6.233 6.232 6.232 0 0 0-6.233-6.233m-20.778 0a6.233 6.233 0 1 0 6.233 6.233 6.234 6.234 0 0 0-6.233-6.233m-20.775 0a6.233 6.233 0 1 0 6.233 6.233 6.234 6.234 0 0 0-6.233-6.233m-20.775 0a6.233 6.233 0 1 0 6.233 6.233 6.232 6.232 0 0 0-6.233-6.233m-20.778 0a6.233 6.233 0 1 0 6.233 6.233 6.235 6.235 0 0 0-6.233-6.233m-20.775 0a6.233 6.233 0 1 0 6.233 6.233 6.232 6.232 0 0 0-6.233-6.233m-20.779 0a6.233 6.233 0 1 0 6.233 6.233 6.235 6.235 0 0 0-6.233-6.233m-20.775 0a6.233 6.233 0 1 0 6.233 6.233 6.235 6.235 0 0 0-6.233-6.233m-20.778 0a6.233 6.233 0 1 0 6.237 6.233 6.235 6.235 0 0 0-6.237-6.233m-20.775 0a6.233 6.233 0 1 0 6.233 6.233 6.235 6.235 0 0 0-6.233-6.233m-20.775 0a6.233 6.233 0 1 0 6.233 6.233 6.232 6.232 0 0 0-6.233-6.233m-20.778 0a6.233 6.233 0 1 0 6.233 6.233 6.235 6.235 0 0 0-6.233-6.233m-20.775 0a6.233 6.233 0 1 0 6.233 6.233 6.232 6.232 0 0 0-6.233-6.233m-20.778 0a6.233 6.233 0 1 0 6.233 6.233 6.235 6.235 0 0 0-6.233-6.233m-20.775 0a6.233 6.233 0 1 0 6.233 6.233 6.234 6.234 0 0 0-6.233-6.233m332.42-20.777a6.233 6.233 0 1 0 6.233 6.233 6.23 6.23 0 0 0-6.233-6.233m-20.778 0a6.233 6.233 0 1 0 6.233 6.233 6.232 6.232 0 0 0-6.233-6.233m-20.775 0a6.233 6.233 0 1 0 6.233 6.233 6.23 6.23 0 0 0-6.233-6.233m-20.778 0a6.233 6.233 0 1 0 6.233 6.233 6.232 6.232 0 0 0-6.233-6.233m-20.775 0a6.233 6.233 0 1 0 6.233 6.233 6.232 6.232 0 0 0-6.233-6.233m-20.775 0a6.233 6.233 0 1 0 6.233 6.233 6.23 6.23 0 0 0-6.233-6.233m-20.778 0a6.233 6.233 0 1 0 6.233 6.233 6.232 6.232 0 0 0-6.232-6.233m-20.775 0a6.233 6.233 0 1 0 6.233 6.233 6.23 6.23 0 0 0-6.233-6.233m-20.779 0a6.233 6.233 0 1 0 6.233 6.233 6.232 6.232 0 0 0-6.233-6.233m-20.775 0a6.233 6.233 0 1 0 6.233 6.233 6.232 6.232 0 0 0-6.233-6.233m-20.778 0a6.233 6.233 0 1 0 6.237 6.233 6.232 6.232 0 0 0-6.237-6.233m-20.775 0a6.233 6.233 0 1 0 6.233 6.233 6.232 6.232 0 0 0-6.233-6.233m-20.775 0a6.233 6.233 0 1 0 6.233 6.233 6.23 6.23 0 0 0-6.233-6.233m-20.778 0a6.233 6.233 0 1 0 6.233 6.233 6.232 6.232 0 0 0-6.233-6.233m-20.775 0a6.233 6.233 0 1 0 6.233 6.233 6.23 6.23 0 0 0-6.233-6.233m-20.778 0a6.233 6.233 0 1 0 6.233 6.233 6.232 6.232 0 0 0-6.233-6.233m-20.775 0a6.233 6.233 0 1 0 6.233 6.233 6.232 6.232 0 0 0-6.233-6.233m332.423-20.778a6.233 6.233 0 1 0 6.233 6.233 6.232 6.232 0 0 0-6.233-6.233m-20.778 0a6.233 6.233 0 1 0 6.233 6.233 6.234 6.234 0 0 0-6.233-6.233m-20.775 0a6.233 6.233 0 1 0 6.233 6.233 6.232 6.232 0 0 0-6.233-6.233m-20.778 0a6.233 6.233 0 1 0 6.233 6.233 6.234 6.234 0 0 0-6.233-6.233m-20.775 0a6.233 6.233 0 1 0 6.233 6.233 6.234 6.234 0 0 0-6.233-6.233m-20.775 0a6.233 6.233 0 1 0 6.233 6.233 6.232 6.232 0 0 0-6.233-6.233m-20.778 0a6.233 6.233 0 1 0 6.233 6.233 6.234 6.234 0 0 0-6.233-6.233m-20.775 0a6.233 6.233 0 1 0 6.233 6.233 6.232 6.232 0 0 0-6.233-6.233m-20.779 0a6.233 6.233 0 1 0 6.233 6.233 6.235 6.235 0 0 0-6.233-6.233m-20.775 0a6.233 6.233 0 1 0 6.233 6.233 6.235 6.235 0 0 0-6.233-6.233m-20.778 0a6.233 6.233 0 1 0 6.237 6.233 6.234 6.234 0 0 0-6.237-6.233m-20.775 0a6.233 6.233 0 1 0 6.233 6.233 6.235 6.235 0 0 0-6.233-6.233m-20.775 0a6.233 6.233 0 1 0 6.233 6.233 6.232 6.232 0 0 0-6.233-6.233m-20.778 0a6.233 6.233 0 1 0 6.233 6.233 6.235 6.235 0 0 0-6.233-6.233m-20.775 0a6.233 6.233 0 1 0 6.233 6.233 6.232 6.232 0 0 0-6.233-6.233m-20.778 0a6.233 6.233 0 1 0 6.233 6.233 6.235 6.235 0 0 0-6.233-6.233m-20.775 0a6.233 6.233 0 1 0 6.233 6.233 6.234 6.234 0 0 0-6.233-6.233m332.423-20.775a6.233 6.233 0 1 0 6.233 6.233 6.232 6.232 0 0 0-6.233-6.233m-20.778 0a6.233 6.233 0 1 0 6.233 6.233 6.235 6.235 0 0 0-6.233-6.233m-20.775 0a6.233 6.233 0 1 0 6.233 6.233 6.232 6.232 0 0 0-6.233-6.233m-20.778 0a6.233 6.233 0 1 0 6.233 6.233 6.234 6.234 0 0 0-6.233-6.233m-20.775 0a6.233 6.233 0 1 0 6.233 6.233 6.234 6.234 0 0 0-6.233-6.233m-20.775 0a6.233 6.233 0 1 0 6.233 6.233 6.232 6.232 0 0 0-6.233-6.233m-20.778 0a6.233 6.233 0 1 0 6.233 6.233 6.235 6.235 0 0 0-6.233-6.233m-20.775 0a6.233 6.233 0 1 0 6.233 6.233 6.232 6.232 0 0 0-6.233-6.233m-20.779 0a6.233 6.233 0 1 0 6.233 6.233 6.235 6.235 0 0 0-6.233-6.233m-20.775 0a6.233 6.233 0 1 0 6.233 6.233 6.235 6.235 0 0 0-6.233-6.233m-20.778 0a6.233 6.233 0 1 0 6.237 6.233 6.234 6.234 0 0 0-6.237-6.233m-20.775 0a6.233 6.233 0 1 0 6.233 6.233 6.235 6.235 0 0 0-6.233-6.233m-20.775 0a6.233 6.233 0 1 0 6.233 6.233 6.232 6.232 0 0 0-6.233-6.233m-20.778 0a6.233 6.233 0 1 0 6.233 6.233 6.235 6.235 0 0 0-6.233-6.233m-20.775 0a6.233 6.233 0 1 0 6.233 6.233 6.232 6.232 0 0 0-6.233-6.233m-20.778 0a6.233 6.233 0 1 0 6.233 6.233 6.235 6.235 0 0 0-6.233-6.233m-20.775 0a6.233 6.233 0 1 0 6.233 6.233 6.234 6.234 0 0 0-6.233-6.233m332.423-20.778a6.235 6.235 0 1 0 6.233 6.236 6.233 6.233 0 0 0-6.233-6.236m-20.778 0a6.235 6.235 0 1 0 6.233 6.236 6.235 6.235 0 0 0-6.233-6.236m-20.775 0a6.235 6.235 0 1 0 6.233 6.236 6.233 6.233 0 0 0-6.233-6.236m-20.778 0a6.235 6.235 0 1 0 6.233 6.236 6.235 6.235 0 0 0-6.233-6.236m-20.775 0a6.235 6.235 0 1 0 6.233 6.236 6.235 6.235 0 0 0-6.233-6.236m-20.775 0a6.235 6.235 0 1 0 6.233 6.236 6.233 6.233 0 0 0-6.233-6.236m-20.778 0a6.235 6.235 0 1 0 6.233 6.236 6.235 6.235 0 0 0-6.233-6.236m-20.775 0a6.235 6.235 0 1 0 6.233 6.236 6.233 6.233 0 0 0-6.233-6.236m-20.779 0a6.235 6.235 0 1 0 6.233 6.236 6.235 6.235 0 0 0-6.233-6.236m-20.775 0a6.235 6.235 0 1 0 6.233 6.236 6.235 6.235 0 0 0-6.233-6.236m-20.778 0a6.235 6.235 0 1 0 6.237 6.236 6.235 6.235 0 0 0-6.237-6.236m-20.775 0a6.235 6.235 0 1 0 6.233 6.236 6.235 6.235 0 0 0-6.233-6.236m-20.775 0a6.235 6.235 0 1 0 6.233 6.236 6.233 6.233 0 0 0-6.233-6.236m-20.778 0a6.235 6.235 0 1 0 6.233 6.236 6.235 6.235 0 0 0-6.233-6.236m-20.775 0a6.235 6.235 0 1 0 6.233 6.236 6.233 6.233 0 0 0-6.233-6.236m-20.778 0a6.235 6.235 0 1 0 6.233 6.236 6.235 6.235 0 0 0-6.233-6.236m-20.775 0a6.235 6.235 0 1 0 6.233 6.236 6.235 6.235 0 0 0-6.233-6.236m332.418-20.769a6.233 6.233 0 1 0 6.233 6.233 6.232 6.232 0 0 0-6.233-6.233m-20.778 0a6.233 6.233 0 1 0 6.233 6.233 6.235 6.235 0 0 0-6.233-6.233m-20.775 0a6.233 6.233 0 1 0 6.233 6.233 6.232 6.232 0 0 0-6.233-6.233m-20.778 0a6.233 6.233 0 1 0 6.233 6.233 6.234 6.234 0 0 0-6.233-6.233m-20.775 0a6.233 6.233 0 1 0 6.233 6.233 6.234 6.234 0 0 0-6.233-6.233m-20.775 0a6.233 6.233 0 1 0 6.233 6.233 6.232 6.232 0 0 0-6.233-6.233m-20.777 0a6.233 6.233 0 1 0 6.233 6.233 6.235 6.235 0 0 0-6.233-6.233m-20.775 0a6.233 6.233 0 1 0 6.233 6.233 6.232 6.232 0 0 0-6.234-6.233m-20.779 0a6.233 6.233 0 1 0 6.233 6.233 6.235 6.235 0 0 0-6.233-6.233m-20.775 0a6.233 6.233 0 1 0 6.233 6.233 6.235 6.235 0 0 0-6.233-6.233m-20.778 0a6.233 6.233 0 1 0 6.237 6.233 6.235 6.235 0 0 0-6.237-6.233m-20.775 0a6.233 6.233 0 1 0 6.233 6.233 6.235 6.235 0 0 0-6.233-6.233m-20.775 0a6.233 6.233 0 1 0 6.233 6.233 6.232 6.232 0 0 0-6.233-6.233m-20.778 0a6.233 6.233 0 1 0 6.233 6.233 6.235 6.235 0 0 0-6.233-6.233m-20.775 0a6.233 6.233 0 1 0 6.233 6.233 6.232 6.232 0 0 0-6.233-6.233m-20.778 0a6.233 6.233 0 1 0 6.233 6.233 6.235 6.235 0 0 0-6.233-6.233m-20.775 0a6.233 6.233 0 1 0 6.233 6.233 6.234 6.234 0 0 0-6.233-6.233m332.423-20.775a6.233 6.233 0 1 0 6.233 6.233 6.23 6.23 0 0 0-6.233-6.233m-20.778 0a6.233 6.233 0 1 0 6.233 6.233 6.232 6.232 0 0 0-6.233-6.233m-20.775 0a6.233 6.233 0 1 0 6.233 6.233 6.23 6.23 0 0 0-6.233-6.233m-20.778 0a6.233 6.233 0 1 0 6.233 6.233 6.232 6.232 0 0 0-6.233-6.233m-20.775 0a6.233 6.233 0 1 0 6.233 6.233 6.232 6.232 0 0 0-6.233-6.233m-20.775 0a6.233 6.233 0 1 0 6.233 6.233 6.23 6.23 0 0 0-6.233-6.233m-20.778 0a6.233 6.233 0 1 0 6.233 6.233 6.232 6.232 0 0 0-6.233-6.233m-20.775 0a6.233 6.233 0 1 0 6.233 6.233 6.23 6.23 0 0 0-6.233-6.233m-20.779 0a6.233 6.233 0 1 0 6.233 6.233 6.232 6.232 0 0 0-6.233-6.233m-20.775 0a6.233 6.233 0 1 0 6.233 6.233 6.232 6.232 0 0 0-6.233-6.233m-20.778 0a6.233 6.233 0 1 0 6.237 6.233 6.232 6.232 0 0 0-6.237-6.233m-20.775 0a6.233 6.233 0 1 0 6.233 6.233 6.232 6.232 0 0 0-6.233-6.233m-20.775 0a6.233 6.233 0 1 0 6.233 6.233 6.23 6.23 0 0 0-6.233-6.233m-20.778 0a6.233 6.233 0 1 0 6.233 6.233 6.232 6.232 0 0 0-6.233-6.233m-20.775 0a6.233 6.233 0 1 0 6.233 6.233 6.23 6.23 0 0 0-6.233-6.233m-20.778 0a6.233 6.233 0 1 0 6.233 6.233 6.232 6.232 0 0 0-6.233-6.233m-20.775 0a6.233 6.233 0 1 0 6.233 6.233 6.232 6.232 0 0 0-6.233-6.233m332.423-20.778a6.233 6.233 0 1 0 6.233 6.233 6.232 6.232 0 0 0-6.233-6.233m-20.778 0a6.233 6.233 0 1 0 6.233 6.233 6.235 6.235 0 0 0-6.233-6.233m-20.775 0a6.233 6.233 0 1 0 6.233 6.233 6.232 6.232 0 0 0-6.233-6.233m-20.778 0a6.233 6.233 0 1 0 6.233 6.233 6.234 6.234 0 0 0-6.233-6.233m-20.775 0a6.233 6.233 0 1 0 6.233 6.233 6.234 6.234 0 0 0-6.233-6.233m-20.775 0a6.233 6.233 0 1 0 6.233 6.233 6.232 6.232 0 0 0-6.233-6.233m-20.778 0a6.233 6.233 0 1 0 6.233 6.233 6.235 6.235 0 0 0-6.233-6.233m-20.775 0a6.233 6.233 0 1 0 6.233 6.233 6.232 6.232 0 0 0-6.233-6.233m-20.779 0a6.233 6.233 0 1 0 6.233 6.233 6.235 6.235 0 0 0-6.233-6.233m-20.775 0a6.233 6.233 0 1 0 6.233 6.233 6.235 6.235 0 0 0-6.233-6.233m-20.778 0a6.233 6.233 0 1 0 6.237 6.233 6.235 6.235 0 0 0-6.237-6.233m-20.775 0a6.233 6.233 0 1 0 6.233 6.233 6.235 6.235 0 0 0-6.233-6.233m-20.775 0a6.233 6.233 0 1 0 6.233 6.233 6.232 6.232 0 0 0-6.233-6.233m-20.778 0a6.233 6.233 0 1 0 6.233 6.233 6.235 6.235 0 0 0-6.233-6.233m-20.775 0a6.233 6.233 0 1 0 6.233 6.233 6.232 6.232 0 0 0-6.233-6.233m-20.778 0a6.233 6.233 0 1 0 6.233 6.233 6.235 6.235 0 0 0-6.233-6.233m-20.775 0a6.233 6.233 0 1 0 6.233 6.233 6.234 6.234 0 0 0-6.233-6.233m332.423-20.775a6.233 6.233 0 1 0 6.233 6.233 6.23 6.23 0 0 0-6.233-6.233m-20.778 0a6.233 6.233 0 1 0 6.233 6.233 6.232 6.232 0 0 0-6.233-6.233m-20.775 0a6.233 6.233 0 1 0 6.233 6.233 6.23 6.23 0 0 0-6.233-6.233m-20.778 0a6.233 6.233 0 1 0 6.233 6.233 6.232 6.232 0 0 0-6.233-6.233m-20.775 0a6.233 6.233 0 1 0 6.233 6.233 6.232 6.232 0 0 0-6.233-6.233m-20.775 0a6.233 6.233 0 1 0 6.233 6.233 6.23 6.23 0 0 0-6.233-6.233m-20.778 0a6.233 6.233 0 1 0 6.233 6.233 6.232 6.232 0 0 0-6.233-6.233m-20.775 0a6.233 6.233 0 1 0 6.233 6.233 6.23 6.23 0 0 0-6.233-6.233m-20.779 0a6.233 6.233 0 1 0 6.233 6.233 6.232 6.232 0 0 0-6.233-6.233m-20.775 0a6.233 6.233 0 1 0 6.227 6.228 6.232 6.232 0 0 0-6.233-6.233m-20.778 0a6.233 6.233 0 1 0 6.237 6.233 6.232 6.232 0 0 0-6.237-6.233m-20.775 0a6.233 6.233 0 1 0 6.233 6.233 6.232 6.232 0 0 0-6.233-6.233m-20.775 0a6.233 6.233 0 1 0 6.233 6.233 6.23 6.23 0 0 0-6.233-6.233m-20.778 0a6.233 6.233 0 1 0 6.239 6.233 6.232 6.232 0 0 0-6.233-6.233m-20.775 0a6.233 6.233 0 1 0 6.233 6.233 6.23 6.23 0 0 0-6.233-6.233m-20.778 0a6.233 6.233 0 1 0 6.233 6.233 6.232 6.232 0 0 0-6.233-6.233m-20.775 0a6.233 6.233 0 1 0 6.233 6.233 6.232 6.232 0 0 0-6.233-6.233m332.423-20.778a6.233 6.233 0 1 0 6.233 6.233 6.232 6.232 0 0 0-6.233-6.233m-20.778 0a6.233 6.233 0 1 0 6.233 6.233 6.234 6.234 0 0 0-6.233-6.233m-20.775 0a6.233 6.233 0 1 0 6.233 6.233 6.232 6.232 0 0 0-6.233-6.233m-20.778 0a6.233 6.233 0 1 0 6.233 6.233 6.234 6.234 0 0 0-6.233-6.233m-20.775 0a6.233 6.233 0 1 0 6.233 6.233 6.234 6.234 0 0 0-6.233-6.233m-20.775 0a6.233 6.233 0 1 0 6.233 6.233 6.232 6.232 0 0 0-6.233-6.233m-20.778 0a6.233 6.233 0 1 0 6.233 6.233 6.234 6.234 0 0 0-6.233-6.233m-20.775 0a6.233 6.233 0 1 0 6.233 6.233 6.232 6.232 0 0 0-6.233-6.233m-20.779 0a6.233 6.233 0 1 0 6.233 6.233 6.235 6.235 0 0 0-6.233-6.233m-20.775 0a6.233 6.233 0 1 0 6.233 6.233 6.234 6.234 0 0 0-6.233-6.233m-20.778 0a6.233 6.233 0 1 0 6.237 6.233 6.234 6.234 0 0 0-6.237-6.233m-20.775 0a6.233 6.233 0 1 0 6.233 6.233 6.234 6.234 0 0 0-6.233-6.233m-20.775 0a6.233 6.233 0 1 0 6.233 6.233 6.232 6.232 0 0 0-6.233-6.233m-20.778 0a6.233 6.233 0 1 0 6.233 6.233 6.235 6.235 0 0 0-6.233-6.233m-20.775 0a6.233 6.233 0 1 0 6.233 6.233 6.232 6.232 0 0 0-6.233-6.233m-20.778 0a6.233 6.233 0 1 0 6.233 6.233 6.235 6.235 0 0 0-6.233-6.233m-20.775 0a6.233 6.233 0 1 0 6.233 6.233 6.234 6.234 0 0 0-6.233-6.233m332.423-20.775a6.233 6.233 0 1 0 6.233 6.233 6.232 6.232 0 0 0-6.233-6.233m-20.778 0a6.233 6.233 0 1 0 6.233 6.233 6.235 6.235 0 0 0-6.233-6.233m-20.775 0a6.233 6.233 0 1 0 6.233 6.233 6.232 6.232 0 0 0-6.233-6.233m-20.778 0a6.233 6.233 0 1 0 6.233 6.233 6.234 6.234 0 0 0-6.233-6.233m-20.775 0a6.233 6.233 0 1 0 6.233 6.233 6.234 6.234 0 0 0-6.233-6.233m-20.775 0a6.233 6.233 0 1 0 6.233 6.233 6.232 6.232 0 0 0-6.233-6.233m-20.778 0a6.233 6.233 0 1 0 6.233 6.233 6.235 6.235 0 0 0-6.233-6.233m-20.775 0a6.233 6.233 0 1 0 6.233 6.233 6.232 6.232 0 0 0-6.233-6.233m-20.779 0a6.233 6.233 0 1 0 6.233 6.233 6.235 6.235 0 0 0-6.233-6.233m-20.775 0a6.233 6.233 0 1 0 6.233 6.233 6.235 6.235 0 0 0-6.233-6.233m-20.778 0a6.233 6.233 0 1 0 6.237 6.233 6.235 6.235 0 0 0-6.237-6.233m-20.775 0a6.233 6.233 0 1 0 6.233 6.233 6.235 6.235 0 0 0-6.233-6.233m-20.775 0a6.233 6.233 0 1 0 6.233 6.233 6.232 6.232 0 0 0-6.233-6.233m-20.778 0a6.233 6.233 0 1 0 6.233 6.233 6.235 6.235 0 0 0-6.233-6.233m-20.775 0a6.233 6.233 0 1 0 6.233 6.233 6.232 6.232 0 0 0-6.233-6.233m-20.778 0a6.233 6.233 0 1 0 6.233 6.233 6.235 6.235 0 0 0-6.233-6.233m-20.775 0a6.233 6.233 0 1 0 6.233 6.233 6.234 6.234 0 0 0-6.233-6.233m332.423-20.775a6.233 6.233 0 1 0 6.233 6.233 6.23 6.23 0 0 0-6.233-6.233m-20.778 0a6.233 6.233 0 1 0 6.233 6.233 6.232 6.232 0 0 0-6.233-6.233m-20.775 0a6.233 6.233 0 1 0 6.233 6.233 6.23 6.23 0 0 0-6.233-6.233m-20.778 0a6.233 6.233 0 1 0 6.233 6.233 6.232 6.232 0 0 0-6.233-6.233m-20.775 0a6.233 6.233 0 1 0 6.233 6.233 6.232 6.232 0 0 0-6.233-6.233m-20.775 0a6.233 6.233 0 1 0 6.233 6.233 6.23 6.23 0 0 0-6.233-6.233m-20.778 0a6.233 6.233 0 1 0 6.233 6.233 6.232 6.232 0 0 0-6.233-6.233m-20.775 0a6.233 6.233 0 1 0 6.233 6.233 6.23 6.23 0 0 0-6.233-6.233m-20.779 0a6.233 6.233 0 1 0 6.233 6.233 6.232 6.232 0 0 0-6.233-6.233m-20.775 0a6.233 6.233 0 1 0 6.233 6.233 6.232 6.232 0 0 0-6.233-6.233m-20.778 0a6.233 6.233 0 1 0 6.237 6.233 6.232 6.232 0 0 0-6.237-6.233m-20.775 0a6.233 6.233 0 1 0 6.233 6.233 6.232 6.232 0 0 0-6.233-6.233m-20.775 0a6.233 6.233 0 1 0 6.233 6.233 6.23 6.23 0 0 0-6.233-6.233m-20.778 0a6.233 6.233 0 1 0 6.233 6.233 6.232 6.232 0 0 0-6.233-6.233m-20.775 0a6.233 6.233 0 1 0 6.233 6.233 6.23 6.23 0 0 0-6.233-6.233m-20.778 0a6.233 6.233 0 1 0 6.233 6.233 6.232 6.232 0 0 0-6.233-6.233m-20.775 0a6.233 6.233 0 1 0 6.233 6.233 6.232 6.232 0 0 0-6.233-6.233m332.423-20.779a6.233 6.233 0 1 0 6.233 6.233 6.232 6.232 0 0 0-6.233-6.233m-20.778 0a6.233 6.233 0 1 0 6.233 6.233 6.235 6.235 0 0 0-6.233-6.233m-20.775 0a6.233 6.233 0 1 0 6.233 6.233 6.232 6.232 0 0 0-6.233-6.233m-20.778 0a6.233 6.233 0 1 0 6.233 6.233 6.234 6.234 0 0 0-6.233-6.233m-20.775 0a6.233 6.233 0 1 0 6.233 6.233 6.234 6.234 0 0 0-6.233-6.233m-20.775 0a6.233 6.233 0 1 0 6.233 6.233 6.232 6.232 0 0 0-6.233-6.233m-20.778 0a6.233 6.233 0 1 0 6.233 6.233 6.234 6.234 0 0 0-6.233-6.233m-20.775 0a6.233 6.233 0 1 0 6.233 6.233 6.232 6.232 0 0 0-6.233-6.233m-20.779 0a6.233 6.233 0 1 0 6.233 6.233 6.235 6.235 0 0 0-6.233-6.233m-20.775 0a6.233 6.233 0 1 0 6.233 6.233 6.235 6.235 0 0 0-6.233-6.233m-20.778 0a6.233 6.233 0 1 0 6.237 6.233 6.234 6.234 0 0 0-6.237-6.233m-20.775 0a6.233 6.233 0 1 0 6.233 6.233 6.235 6.235 0 0 0-6.233-6.233m-20.775 0a6.233 6.233 0 1 0 6.233 6.233 6.232 6.232 0 0 0-6.233-6.233m-20.778 0a6.233 6.233 0 1 0 6.233 6.233 6.235 6.235 0 0 0-6.233-6.233m-20.775 0a6.233 6.233 0 1 0 6.233 6.233 6.232 6.232 0 0 0-6.233-6.233m-20.778 0a6.233 6.233 0 1 0 6.233 6.233 6.235 6.235 0 0 0-6.233-6.233m-20.775 0a6.233 6.233 0 1 0 6.233 6.233 6.234 6.234 0 0 0-6.233-6.233m332.423-20.775a6.233 6.233 0 1 0 6.233 6.233 6.23 6.23 0 0 0-6.233-6.233m-20.778 0a6.233 6.233 0 1 0 6.233 6.233 6.232 6.232 0 0 0-6.233-6.233m-20.775 0a6.233 6.233 0 1 0 6.233 6.233 6.23 6.23 0 0 0-6.233-6.233m-20.778 0a6.233 6.233 0 1 0 6.233 6.233 6.232 6.232 0 0 0-6.233-6.233m-20.775 0a6.233 6.233 0 1 0 6.233 6.233 6.232 6.232 0 0 0-6.233-6.233m-20.775 0a6.233 6.233 0 1 0 6.233 6.233 6.23 6.23 0 0 0-6.233-6.233m-20.778 0a6.233 6.233 0 1 0 6.233 6.233 6.232 6.232 0 0 0-6.233-6.233m-20.775 0a6.233 6.233 0 1 0 6.233 6.233 6.23 6.23 0 0 0-6.233-6.233m-20.779 0a6.233 6.233 0 1 0 6.233 6.233 6.232 6.232 0 0 0-6.233-6.233m-20.775 0a6.233 6.233 0 1 0 6.233 6.233 6.232 6.232 0 0 0-6.233-6.233m-20.778 0a6.233 6.233 0 1 0 6.237 6.233 6.232 6.232 0 0 0-6.237-6.233m-20.775 0a6.233 6.233 0 1 0 6.233 6.233 6.232 6.232 0 0 0-6.233-6.233m-20.775 0a6.233 6.233 0 1 0 6.233 6.233 6.23 6.23 0 0 0-6.233-6.233m-20.778 0a6.233 6.233 0 1 0 6.233 6.233 6.232 6.232 0 0 0-6.233-6.233m-20.775 0a6.233 6.233 0 1 0 6.233 6.233 6.23 6.23 0 0 0-6.233-6.233m-20.778 0a6.233 6.233 0 1 0 6.233 6.233 6.232 6.232 0 0 0-6.233-6.233m-20.775 0a6.233 6.233 0 1 0 6.233 6.233 6.232 6.232 0 0 0-6.233-6.233m332.423-20.779a6.233 6.233 0 1 0 6.233 6.233 6.232 6.232 0 0 0-6.233-6.233m-20.778 0a6.233 6.233 0 1 0 6.233 6.233 6.234 6.234 0 0 0-6.233-6.233m-20.775 0a6.233 6.233 0 1 0 6.233 6.233 6.232 6.232 0 0 0-6.233-6.233m-20.778 0a6.233 6.233 0 1 0 6.233 6.233 6.234 6.234 0 0 0-6.233-6.233m-20.775 0a6.233 6.233 0 1 0 6.233 6.233 6.234 6.234 0 0 0-6.233-6.233m-20.775 0a6.233 6.233 0 1 0 6.233 6.233 6.232 6.232 0 0 0-6.233-6.233m-20.778 0a6.233 6.233 0 1 0 6.233 6.233 6.234 6.234 0 0 0-6.233-6.233m-20.775 0a6.233 6.233 0 1 0 6.233 6.233 6.232 6.232 0 0 0-6.233-6.233m-20.779 0a6.233 6.233 0 1 0 6.233 6.233 6.235 6.235 0 0 0-6.233-6.233m-20.775 0a6.233 6.233 0 1 0 6.233 6.233 6.234 6.234 0 0 0-6.233-6.233m-20.778 0a6.233 6.233 0 1 0 6.237 6.233 6.234 6.234 0 0 0-6.237-6.233m-20.775 0a6.233 6.233 0 1 0 6.233 6.233 6.234 6.234 0 0 0-6.233-6.233m-20.775 0a6.233 6.233 0 1 0 6.233 6.233 6.232 6.232 0 0 0-6.233-6.233m-20.778 0a6.233 6.233 0 1 0 6.233 6.233 6.235 6.235 0 0 0-6.233-6.233m-20.775 0a6.233 6.233 0 1 0 6.233 6.233 6.232 6.232 0 0 0-6.233-6.233m-20.778 0a6.233 6.233 0 1 0 6.233 6.233 6.235 6.235 0 0 0-6.233-6.233m-20.775 0a6.233 6.233 0 1 0 6.233 6.233 6.234 6.234 0 0 0-6.233-6.233m332.423-20.775a6.233 6.233 0 1 0 6.233 6.233 6.232 6.232 0 0 0-6.233-6.233m-20.778 0a6.233 6.233 0 1 0 6.233 6.233 6.235 6.235 0 0 0-6.233-6.233m-20.775 0a6.233 6.233 0 1 0 6.233 6.233 6.232 6.232 0 0 0-6.233-6.233m-20.778 0a6.233 6.233 0 1 0 6.233 6.233 6.234 6.234 0 0 0-6.233-6.233m-20.775 0a6.233 6.233 0 1 0 6.233 6.233 6.234 6.234 0 0 0-6.233-6.233m-20.775 0a6.233 6.233 0 1 0 6.233 6.233 6.232 6.232 0 0 0-6.233-6.233m-20.778 0a6.233 6.233 0 1 0 6.233 6.233 6.235 6.235 0 0 0-6.233-6.233m-20.775 0a6.233 6.233 0 1 0 6.233 6.233 6.232 6.232 0 0 0-6.233-6.233m-20.779 0a6.233 6.233 0 1 0 6.233 6.233 6.235 6.235 0 0 0-6.233-6.233m-20.775 0a6.233 6.233 0 1 0 6.233 6.233 6.235 6.235 0 0 0-6.233-6.233m-20.778 0a6.233 6.233 0 1 0 6.237 6.233 6.234 6.234 0 0 0-6.237-6.233m-20.775 0a6.233 6.233 0 1 0 6.233 6.233 6.235 6.235 0 0 0-6.233-6.233m-20.775 0a6.233 6.233 0 1 0 6.233 6.233 6.232 6.232 0 0 0-6.233-6.233m-20.778 0a6.233 6.233 0 1 0 6.233 6.233 6.235 6.235 0 0 0-6.233-6.233m-20.775 0a6.233 6.233 0 1 0 6.233 6.233 6.232 6.232 0 0 0-6.233-6.233m-20.778 0a6.233 6.233 0 1 0 6.233 6.233 6.235 6.235 0 0 0-6.233-6.233m-14.542 6.233a6.233 6.233 0 1 1-6.233-6.233 6.235 6.235 0 0 1 6.233 6.233"/></g></g></svg>