<svg xmlns="http://www.w3.org/2000/svg" width="40" height="40" viewBox="0 0 40 40"><path d="M19.971 40a19.449 19.449 0 0 1-10.014-2.7 19.947 19.947 0 0 1-7.283-7.312A19.607 19.607 0 0 1 0 19.974 19.607 19.607 0 0 1 2.674 9.956a19.73 19.73 0 0 1 7.283-7.283A19.607 19.607 0 0 1 19.971-.001a19.607 19.607 0 0 1 10.014 2.674 19.947 19.947 0 0 1 7.312 7.283 19.449 19.449 0 0 1 2.7 10.014 19.449 19.449 0 0 1-2.7 10.014 20.168 20.168 0 0 1-7.312 7.313A19.449 19.449 0 0 1 19.971 40zM14.338 8.649a2.043 2.043 0 0 0-1.536.654 2.185 2.185 0 0 0-.626 1.565 2.089 2.089 0 0 0 .626 1.536 2.089 2.089 0 0 0 1.536.626 2.089 2.089 0 0 0 1.536-.626 2.089 2.089 0 0 0 .626-1.536 2.184 2.184 0 0 0-.626-1.565 2.043 2.043 0 0 0-1.536-.654zm1.764 5.69h-3.528v12.233h3.528zm1.707 12.233h3.528V18.72a2.943 2.943 0 0 1 1.935-.853 1.8 1.8 0 0 1 .91.228.762.762 0 0 1 .427.4 1.263 1.263 0 0 1 .2.626v7.454h3.471v-7.454a4.78 4.78 0 0 0-.654-2.361 4.247 4.247 0 0 0-1.735-1.735 5.4 5.4 0 0 0-2.447-.569 4.431 4.431 0 0 0-2.105.455v-.569h-3.528z" fill="#fff"/></svg>