<svg xmlns="http://www.w3.org/2000/svg" width="175" height="90.004" viewBox="0 0 175 90.004"><defs><style>.a{fill:#b4ebf5;}</style></defs><g transform="translate(-2.998 -4.998)"><path class="a" d="M-20306,21112a38,38,0,0,1,38,38,38,38,0,0,1-38,38Zm-47,31c0-24.855,20.6-45,46-45,.336,0,.67,0,1,.016v89.977c-.33.006-.664.012-1,.012C-20332.406,21188-20353,21167.854-20353,21143Z" transform="translate(20356 -21093)"/><path class="a" d="M-20306,21112a38,38,0,0,1,38,38,38,38,0,0,1-38,38Zm-46,31c0-24.855,20.371-45,45.5-45,.164,0,.336,0,.5,0V21188c-.164.006-.336.006-.5.006C-20331.631,21188-20352,21167.854-20352,21143Z" transform="translate(20446 -21093)"/></g></svg>