<svg xmlns="http://www.w3.org/2000/svg" width="40" height="40" viewBox="0 0 40 40"><defs><style>.a{fill:#fff}</style></defs><g transform="translate(-1235.857 -9100.057)"><circle class="a" cx="20" cy="20" r="20" transform="translate(1235.857 9100.057)"/><path d="M1266.738 9114.556a2.853 2.853 0 0 0-2.008-2.021c-1.771-.479-8.872-.479-8.872-.479s-7.1 0-8.873.478a2.853 2.853 0 0 0-2.007 2.022 32.125 32.125 0 0 0 0 11 2.853 2.853 0 0 0 2.008 2.021c1.77.479 8.872.479 8.872.479s7.1 0 8.873-.478a2.853 2.853 0 0 0 2.007-2.022 32.125 32.125 0 0 0 0-11z" fill="#003057"/><path class="a" d="M1253.503 9123.467l6-3.411-6-3.411z"/></g></svg>